<svg width="100" height="100" viewBox="0 0 100 100" fill="none" xmlns="http://www.w3.org/2000/svg">
<path fill-rule="evenodd" clip-rule="evenodd" d="M50 0C22.3858 0 0 22.3858 0 50C0 77.6142 22.3858 100 50 100C77.6142 100 100 77.6142 100 50C100 22.3858 77.6142 0 50 0ZM31.0909 24.0909H27V28.1818H31.0909V24.0909ZM59.7273 24.0909H55.6364H51.5454V20H47.4545H43.3637H39.2727H35.1818H31.0909V24.0909H35.1818H39.2727H43.3637V28.1818H47.4545H51.5454H55.6364H59.7273V32.2727V36.3636V40.4546V44.5455V48.6363V52.7273V56.8182V60.909V65V69.0909V73.1818V77.2728H55.6364H51.5454V73.1818H55.6364V69.0909V65V60.909V56.8182V52.7273V48.6363V44.5455V40.4546V36.3636V32.2727H51.5454V36.3636V40.4546H47.4545H43.3637V44.5455H47.4545H51.5454V48.6363H47.4545H43.3637V52.7273H47.4545H51.5454V56.8182V60.909V65V69.0909V73.1818H47.4545H43.3637H39.2727H35.1818V77.2728H31.0909V81.3636H35.1818V77.2728H39.2727H43.3637V81.3636H47.4545H51.5454H55.6364H59.7273V77.2728H63.8181V73.1818H67.9091V69.0909V65V60.909V56.8182V52.7273V48.6363V44.5455V40.4546V36.3636V32.2727V28.1818V24.0909H72V20H67.9091V24.0909H63.8181V20H59.7273V24.0909ZM59.7273 24.0909H63.8181V28.1818H59.7273V24.0909Z" fill="#D9D9D9"/>
</svg>
